<svg xmlns="http://www.w3.org/2000/svg" viewBox="0 0 75.9 63"><defs><style>.cls-1{opacity:0.6;}.cls-2{fill:#8a70f5;opacity:0.65;}</style></defs><title>em</title><g id="Layer_2" data-name="Layer 2"><g id="Layer_1-2" data-name="Layer 1"><g class="cls-1"><path class="cls-2" d="M73.38,12.33H42.52a2.12,2.12,0,0,0-2.21,1.91,2.12,2.12,0,0,0,2.21,1.91H71.18V58.54H4.09V16.47H32.44a1.82,1.82,0,0,0,1.89-1.91,2,2,0,0,0-1.89-1.91H2.2A1.77,1.77,0,0,0,0,14.56V61.09A2.11,2.11,0,0,0,2.2,63H73.7a2.16,2.16,0,0,0,2.2-2.23V14.56A2.67,2.67,0,0,0,73.38,12.33Z"/><path class="cls-2" d="M65.51,22.21a2,2,0,0,0-2.84-.32L37.79,40.37,12.91,21.89a2,2,0,0,0-2.83.32,2.09,2.09,0,0,0,.63,2.87L36.85,44.83a1.86,1.86,0,0,0,1.26.32,1.88,1.88,0,0,0,1.26-.32L65.51,25.08A3.08,3.08,0,0,0,65.51,22.21Z"/><path class="cls-2" d="M49.76,40.37a2,2,0,0,0-2.83.32,2,2,0,0,0,.31,2.87L62.36,55a1.86,1.86,0,0,0,1.26.32,1.72,1.72,0,0,0,1.57-1,2,2,0,0,0-.31-2.87Z"/><path class="cls-2" d="M25.82,40.37,10.71,51.85a2,2,0,0,0-.32,2.86,1.74,1.74,0,0,0,1.58,1,1.88,1.88,0,0,0,1.26-.32L28.34,43.88a2.17,2.17,0,0,0-2.52-3.51Z"/><path class="cls-2" d="M34.45,17.76c-.76-1.33-1.77-1.33-2.27,0a6.66,6.66,0,0,0,0,4.45l4,7.1c.25.45.25.45.5.45s.5.44.5.44c.26,0,.51,0,.51-.44.25,0,.5-.45.5-.45l4.54-7.1a3.77,3.77,0,0,0,0-4c-.75-.89-1.76-1.33-2.27,0l-1.26,2.22V2.66c0-1.33-.75-2.66-1.76-2.66S36,1.33,36,2.66V20Z"/></g></g></g></svg>