<svg xmlns="http://www.w3.org/2000/svg" viewBox="0 0 34.81 54"><defs><style>.cls-1{opacity:0.4;}.cls-2{fill:#8a70f5;}</style></defs><title>lc</title><g id="Layer_2" data-name="Layer 2"><g id="Layer_1-2" data-name="Layer 1"><g class="cls-1"><path class="cls-2" d="M17.4,0C7.78,0,0,8.12,0,18c0,4,2.23,8.84,3.68,11.63L15.81,53a1.8,1.8,0,0,0,2.43.75A1.83,1.83,0,0,0,19,53L31.13,29.63C32.58,26.84,34.81,22,34.81,18,34.81,8.12,27,0,17.4,0Zm0,3.6A14.09,14.09,0,0,1,31.21,18c0,2.45-2,7.47-3.27,10L17.4,48.29,6.86,28C5.57,25.47,3.6,20.45,3.6,18,3.6,10,9.8,3.6,17.4,3.6Zm0,4.8a9,9,0,1,0,9,9A9,9,0,0,0,17.4,8.4Zm0,3.6A5.4,5.4,0,1,1,12,17.4,5.37,5.37,0,0,1,17.4,12Z"/></g></g></g></svg>