<svg xmlns="http://www.w3.org/2000/svg" viewBox="0 0 114.05 46.97"><defs><style>.cls-1{fill:none;stroke:#8a70f5;stroke-miterlimit:10;stroke-width:3px;opacity:0.4;}</style></defs><title>ln</title><g id="Layer_2" data-name="Layer 2"><g id="Layer_1-2" data-name="Layer 1"><circle class="cls-1" cx="6.55" cy="5.5" r="4"/><path class="cls-1" d="M101.84,15.53a9,9,0,0,0-6,2.3,1.47,1.47,0,0,0-1.4-1.33H86.94A1.47,1.47,0,0,0,85.55,18V44a1.47,1.47,0,0,0,1.39,1.45h7.92A1.47,1.47,0,0,0,96.25,44V29.53a5.27,5.27,0,0,1,.83-2.88,1.91,1.91,0,0,1,1.5-1h.93a1.89,1.89,0,0,1,1.5,1,5.27,5.27,0,0,1,.83,2.88V44a1.48,1.48,0,0,0,1.4,1.45h7.91a1.48,1.48,0,0,0,1.4-1.45V27.12c0-3.28-.6-6.2-2.36-8.34S105.6,15.53,101.84,15.53Z"/><path class="cls-1" d="M2.69,15.22a1.45,1.45,0,0,0-1,1.49l-.14,27a1.43,1.43,0,0,0,1.17,1.51l6.65,0a1.42,1.42,0,0,0,1.18-1.49l.14-27c0-.79-.56-1.51-1.17-1.51Z"/></g></g></svg>