<svg xmlns="http://www.w3.org/2000/svg" viewBox="0 0 525 272.75"><defs><style>.cls-1{fill:#7a7a7a;}.cls-11,.cls-2,.cls-3{fill:none;}.cls-2,.cls-4,.cls-5{stroke:#000;}.cls-11,.cls-13,.cls-2,.cls-4,.cls-5{stroke-miterlimit:10;}.cls-12,.cls-3,.cls-7,.cls-9{opacity:0.7;}.cls-10,.cls-3,.cls-7{font-size:44.84px;font-family:SegoeUI-Bold, Segoe UI;font-weight:700;}.cls-3{letter-spacing:0.16em;}.cls-5{letter-spacing:0.13em;}.cls-10,.cls-6,.cls-7{letter-spacing:0.2em;}.cls-6{fill:#000;}.cls-10,.cls-14,.cls-7{fill:#8a70f5;}.cls-8{opacity:0.9;}.cls-11,.cls-13{stroke:#8a70f5;}.cls-13{fill:#f0f0f0;}</style></defs><title>websam</title><g id="Layer_2" data-name="Layer 2"><g id="Layer_1-2" data-name="Layer 1"><line class="cls-1" y1="78.2" x2="287.9" y2="78.23"/><line class="cls-2" x1="1.2" y1="78.2" x2="287.9" y2="78.23"/><path d="M8,83a.5.5,0,0,0-.16-.69L1.43,78.2l6.45-4.11A.49.49,0,0,0,8,73.4a.5.5,0,0,0-.69-.15L.23,77.78a.5.5,0,0,0,0,.84l7.12,4.53a.42.42,0,0,0,.26.08A.51.51,0,0,0,8,83Z"/><line class="cls-2" x1="140.84" y1="213.75" x2="140.84" y2="7"/><text class="cls-3" transform="translate(37.72 58.61)"><tspan class="cls-4">W</tspan><tspan class="cls-5" x="52.45" y="0">A</tspan><tspan class="cls-4" x="89.82" y="0">T</tspan><tspan class="cls-6" x="123.48" y="0">CH</tspan></text><polyline points="140.93 26.93 153.38 26.93 153.38 33.16 144.66 33.16 144.66 58.07 140.93 58.07 140.93 26.93"/><text class="cls-7" transform="translate(205.88 119.65)">W<tspan class="cls-8" x="54.03" y="0">EB</tspan></text><g class="cls-9"><text class="cls-10" transform="translate(263.17 170.72)"><tspan class="cls-8">SAM</tspan><tspan class="cls-11" x="126.48" y="0">PLES</tspan></text></g><polygon class="cls-12" points="228.74 87.96 224.9 88 219.4 110.38 214.41 87.96 205.69 88 214.66 119.73 222.34 119.73 228.74 98.95 228.74 87.96"/><polygon class="cls-13" points="359.53 161.16 359.53 170.72 362.02 170.79 370.74 145.88 370.74 170.79 376.96 170.79 376.96 139.66 367 139.66 359.53 161.16"/><line class="cls-11" x1="359.5" y1="232.75" x2="359.5" y2="30.75"/><line class="cls-11" x1="100.2" y1="129.2" x2="386.9" y2="129.23"/><path class="cls-14" d="M107,134a.5.5,0,0,0-.16-.69l-6.45-4.11,6.45-4.11a.49.49,0,0,0,.16-.69.5.5,0,0,0-.69-.15l-7.12,4.53a.5.5,0,0,0,0,.84l7.12,4.53a.42.42,0,0,0,.26.08A.51.51,0,0,0,107,134Z"/><line class="cls-2" x1="227.93" y1="272.75" x2="227.93"/></g></g></svg>