<svg xmlns="http://www.w3.org/2000/svg" viewBox="0 0 574.08 330.76"><defs><style>.cls-1{fill:#7a7a7a;}.cls-1,.cls-2,.cls-3,.cls-5,.cls-9{stroke:#000;}.cls-1,.cls-16,.cls-2,.cls-3,.cls-5,.cls-7,.cls-8,.cls-9{stroke-miterlimit:10;}.cls-16,.cls-2,.cls-3,.cls-7,.cls-8,.cls-9{fill:none;}.cls-14,.cls-15,.cls-16,.cls-2,.cls-5,.cls-9{opacity:0.7;}.cls-3,.cls-4,.cls-6,.cls-8{font-size:44.84px;}.cls-14,.cls-15,.cls-16,.cls-3,.cls-4,.cls-6,.cls-8,.cls-9{font-family:SegoeUI-Bold, Segoe UI;font-weight:700;}.cls-3,.cls-6{letter-spacing:0.2em;}.cls-4,.cls-8{letter-spacing:0.2em;}.cls-5{fill:#544b4b;}.cls-15,.cls-6{fill:#8a70f5;}.cls-6{opacity:0.9;}.cls-16,.cls-7,.cls-8{stroke:#8a70f5;}.cls-14,.cls-15,.cls-16,.cls-9{font-size:36px;letter-spacing:0.2em;}.cls-10{letter-spacing:0.2em;}.cls-11{letter-spacing:0.19em;}.cls-12{letter-spacing:0.21em;}.cls-13{letter-spacing:0.2em;}</style></defs><title>infj</title><g id="Layer_2" data-name="Layer 2"><g id="Layer_1-2" data-name="Layer 1"><line class="cls-1" y1="53.21" x2="287.9" y2="53.24"/><line class="cls-2" x1="140.67" y1="188.76" x2="140.67" y2="6.76"/><text class="cls-3" transform="translate(129.72 38.62)">I</text><text class="cls-4" transform="translate(225.88 94.65)">N</text><line class="cls-5" x1="230.05" y1="236.76" x2="230.05" y2="63.76"/><text class="cls-6" transform="translate(304.17 153.72)">F</text><line class="cls-5" x1="118" y1="102.73" x2="396.27" y2="102.78"/><line class="cls-7" x1="308.5" y1="299.76" x2="308.5" y2="97.76"/><text class="cls-8" transform="translate(379.33 224.5)">J</text><line class="cls-7" x1="160" y1="171.23" x2="401.27" y2="171.28"/><text class="cls-9" transform="translate(156.72 52.62)">nt<tspan class="cls-10" x="50.19" y="0">r</tspan><tspan x="71.57" y="0">o</tspan><tspan class="cls-11" x="100.78" y="0">v</tspan><tspan x="127.14" y="0">e</tspan><tspan class="cls-12" x="153.82" y="0">r</tspan><tspan class="cls-13" x="175.56" y="0">sion</tspan></text><text class="cls-14" transform="translate(209.72 102.62)">i</text><text class="cls-14" transform="translate(267.72 102.62)">ntuition</text><text class="cls-15" transform="translate(329.72 171.62)">eeling</text><line class="cls-7" x1="379.26" y1="330.76" x2="379.26" y2="172.76"/><text class="cls-16" transform="translate(409.72 240.62)">udging</text><line class="cls-7" x1="258.71" y1="240.21" x2="525.27" y2="240.28"/></g></g></svg>